<svg width="50" height="50" viewBox="0 0 50 50" fill="none" xmlns="http://www.w3.org/2000/svg">
<path d="M25.4408 45.207L13.9043 42.0044L11.3335 13.1694H39.5826L37.009 41.9999L25.4408 45.207Z" fill="#264DE4"/>
<path d="M34.8057 40.164L37.005 15.5271H25.458V42.7556L34.8057 40.164Z" fill="#2965F1"/>
<path d="M17.2271 26.2216L17.544 29.758H25.458V26.2216H17.2271Z" fill="#EBEBEB"/>
<path d="M16.5903 19.0637L16.9118 22.6002H25.4582V19.0637H16.5903Z" fill="#EBEBEB"/>
<path d="M25.4581 35.4063L25.4426 35.4104L21.504 34.3469L21.2522 31.5264H17.7021L18.1976 37.0792L25.4418 39.0902L25.4581 39.0857V35.4063Z" fill="#EBEBEB"/>
<path d="M17.9814 5.33331H22.2648V7.12451H19.7726V8.91571H22.2648V10.7069H17.9814V5.33331Z" fill="#DADADA"/>
<path d="M23.1216 5.33331H27.4049V6.89088H24.9128V7.20239H27.4049V10.7848H23.1216V9.14935H25.6137V8.83784H23.1216V5.33331Z" fill="#DADADA"/>
<path d="M28.2617 5.33331H32.545V6.89088H30.0529V7.20239H32.545V10.7848H28.2617V9.14935H30.7538V8.83784H28.2617V5.33331Z" fill="#DADADA"/>
<path d="M33.6663 26.2216L34.3048 19.0637H25.4458V22.6002H30.4291L30.1073 26.2216H25.4458V29.7581H29.8006L29.3901 34.3446L25.4458 35.4092V39.0885L32.6958 37.0792L32.749 36.4817L33.58 27.1713L33.6663 26.2216Z" fill="white"/>
</svg>
