<svg width="303" height="379" viewBox="0 0 303 379" fill="none" xmlns="http://www.w3.org/2000/svg">
<circle cx="6.58696" cy="372.163" r="6.58696" fill="#43615F"/>
<circle cx="32.9346" cy="372.163" r="6.58696" fill="#43615F"/>
<circle cx="59.2823" cy="372.163" r="6.58696" fill="#43615F"/>
<circle cx="85.6309" cy="372.163" r="6.58696" fill="#43615F"/>
<circle cx="111.979" cy="372.163" r="6.58696" fill="#43615F"/>
<circle cx="138.326" cy="372.163" r="6.58696" fill="#43615F"/>
<circle cx="164.674" cy="372.163" r="6.58696" fill="#43615F"/>
<circle cx="191.022" cy="372.163" r="6.58696" fill="#43615F"/>
<circle cx="217.369" cy="372.163" r="6.58696" fill="#43615F"/>
<circle cx="243.718" cy="372.163" r="6.58696" fill="#43615F"/>
<circle cx="270.065" cy="372.163" r="6.58696" fill="#43615F"/>
<circle cx="296.413" cy="372.163" r="6.58696" fill="#43615F"/>
<circle cx="6.58696" cy="347.791" r="6.58696" fill="#43615F"/>
<circle cx="32.9346" cy="347.791" r="6.58696" fill="#43615F"/>
<circle cx="59.2823" cy="347.791" r="6.58696" fill="#43615F"/>
<circle cx="85.6309" cy="347.791" r="6.58696" fill="#43615F"/>
<circle cx="111.979" cy="347.791" r="6.58696" fill="#43615F"/>
<circle cx="138.326" cy="347.791" r="6.58696" fill="#43615F"/>
<circle cx="164.674" cy="347.791" r="6.58696" fill="#43615F"/>
<circle cx="191.022" cy="347.791" r="6.58696" fill="#43615F"/>
<circle cx="217.369" cy="347.791" r="6.58696" fill="#43615F"/>
<circle cx="243.718" cy="347.791" r="6.58696" fill="#43615F"/>
<circle cx="270.065" cy="347.791" r="6.58696" fill="#43615F"/>
<circle cx="296.413" cy="347.791" r="6.58696" fill="#43615F"/>
<circle cx="6.58696" cy="323.419" r="6.58696" fill="#43615F"/>
<circle cx="32.9346" cy="323.419" r="6.58696" fill="#43615F"/>
<circle cx="59.2823" cy="323.419" r="6.58696" fill="#43615F"/>
<circle cx="85.6309" cy="323.419" r="6.58696" fill="#43615F"/>
<circle cx="111.979" cy="323.419" r="6.58696" fill="#43615F"/>
<circle cx="138.326" cy="323.419" r="6.58696" fill="#43615F"/>
<circle cx="164.674" cy="323.419" r="6.58696" fill="#43615F"/>
<circle cx="191.022" cy="323.419" r="6.58696" fill="#43615F"/>
<circle cx="217.369" cy="323.419" r="6.58696" fill="#43615F"/>
<circle cx="243.718" cy="323.419" r="6.58696" fill="#43615F"/>
<circle cx="270.065" cy="323.419" r="6.58696" fill="#43615F"/>
<circle cx="296.413" cy="323.419" r="6.58696" fill="#43615F"/>
<circle cx="6.58696" cy="299.048" r="6.58696" fill="#43615F"/>
<circle cx="32.9346" cy="299.048" r="6.58696" fill="#43615F"/>
<circle cx="59.2823" cy="299.048" r="6.58696" fill="#43615F"/>
<circle cx="85.6309" cy="299.048" r="6.58696" fill="#43615F"/>
<circle cx="111.979" cy="299.048" r="6.58696" fill="#43615F"/>
<circle cx="138.326" cy="299.048" r="6.58696" fill="#43615F"/>
<circle cx="164.674" cy="299.048" r="6.58696" fill="#43615F"/>
<circle cx="191.022" cy="299.048" r="6.58696" fill="#43615F"/>
<circle cx="217.369" cy="299.048" r="6.58696" fill="#43615F"/>
<circle cx="243.718" cy="299.048" r="6.58696" fill="#43615F"/>
<circle cx="270.065" cy="299.048" r="6.58696" fill="#43615F"/>
<circle cx="296.413" cy="299.048" r="6.58696" fill="#43615F"/>
<circle cx="6.58696" cy="274.676" r="6.58696" fill="#43615F"/>
<circle cx="32.9346" cy="274.676" r="6.58696" fill="#43615F"/>
<circle cx="59.2823" cy="274.676" r="6.58696" fill="#43615F"/>
<circle cx="85.6309" cy="274.676" r="6.58696" fill="#43615F"/>
<circle cx="111.979" cy="274.676" r="6.58696" fill="#43615F"/>
<circle cx="138.326" cy="274.676" r="6.58696" fill="#43615F"/>
<circle cx="164.674" cy="274.676" r="6.58696" fill="#43615F"/>
<circle cx="191.022" cy="274.676" r="6.58696" fill="#43615F"/>
<circle cx="217.369" cy="274.676" r="6.58696" fill="#43615F"/>
<circle cx="243.718" cy="274.676" r="6.58696" fill="#43615F"/>
<circle cx="270.065" cy="274.676" r="6.58696" fill="#43615F"/>
<circle cx="296.413" cy="274.676" r="6.58696" fill="#43615F"/>
<circle cx="6.58696" cy="250.304" r="6.58696" fill="#43615F"/>
<circle cx="32.9346" cy="250.304" r="6.58696" fill="#43615F"/>
<circle cx="59.2823" cy="250.304" r="6.58696" fill="#43615F"/>
<circle cx="85.6309" cy="250.304" r="6.58696" fill="#43615F"/>
<circle cx="111.979" cy="250.304" r="6.58696" fill="#43615F"/>
<circle cx="138.326" cy="250.304" r="6.58696" fill="#43615F"/>
<circle cx="164.674" cy="250.304" r="6.58696" fill="#43615F"/>
<circle cx="191.022" cy="250.304" r="6.58696" fill="#43615F"/>
<circle cx="217.369" cy="250.304" r="6.58696" fill="#43615F"/>
<circle cx="243.718" cy="250.304" r="6.58696" fill="#43615F"/>
<circle cx="270.065" cy="250.304" r="6.58696" fill="#43615F"/>
<circle cx="296.413" cy="250.304" r="6.58696" fill="#43615F"/>
<circle cx="6.58696" cy="225.933" r="6.58696" fill="#43615F"/>
<circle cx="32.9346" cy="225.933" r="6.58696" fill="#43615F"/>
<circle cx="59.2823" cy="225.933" r="6.58696" fill="#43615F"/>
<circle cx="85.6309" cy="225.933" r="6.58696" fill="#43615F"/>
<circle cx="111.979" cy="225.933" r="6.58696" fill="#43615F"/>
<circle cx="138.326" cy="225.933" r="6.58696" fill="#43615F"/>
<circle cx="164.674" cy="225.933" r="6.58696" fill="#43615F"/>
<circle cx="191.022" cy="225.933" r="6.58696" fill="#43615F"/>
<circle cx="217.369" cy="225.933" r="6.58696" fill="#43615F"/>
<circle cx="243.718" cy="225.933" r="6.58696" fill="#43615F"/>
<circle cx="270.065" cy="225.933" r="6.58696" fill="#43615F"/>
<circle cx="296.413" cy="225.933" r="6.58696" fill="#43615F"/>
<circle cx="6.58696" cy="201.561" r="6.58696" fill="#43615F"/>
<circle cx="32.9346" cy="201.561" r="6.58696" fill="#43615F"/>
<circle cx="59.2823" cy="201.561" r="6.58696" fill="#43615F"/>
<circle cx="85.6309" cy="201.561" r="6.58696" fill="#43615F"/>
<circle cx="111.979" cy="201.561" r="6.58696" fill="#43615F"/>
<circle cx="138.326" cy="201.561" r="6.58696" fill="#43615F"/>
<circle cx="164.674" cy="201.561" r="6.58696" fill="#43615F"/>
<circle cx="191.022" cy="201.561" r="6.58696" fill="#43615F"/>
<circle cx="217.369" cy="201.561" r="6.58696" fill="#43615F"/>
<circle cx="243.718" cy="201.561" r="6.58696" fill="#43615F"/>
<circle cx="270.065" cy="201.561" r="6.58696" fill="#43615F"/>
<circle cx="296.413" cy="201.561" r="6.58696" fill="#43615F"/>
<circle cx="6.58696" cy="177.189" r="6.58696" fill="#43615F"/>
<circle cx="32.9346" cy="177.189" r="6.58696" fill="#43615F"/>
<circle cx="59.2823" cy="177.189" r="6.58696" fill="#43615F"/>
<circle cx="85.6309" cy="177.189" r="6.58696" fill="#43615F"/>
<circle cx="111.979" cy="177.189" r="6.58696" fill="#43615F"/>
<circle cx="138.326" cy="177.189" r="6.58696" fill="#43615F"/>
<circle cx="164.674" cy="177.189" r="6.58696" fill="#43615F"/>
<circle cx="191.022" cy="177.189" r="6.58696" fill="#43615F"/>
<circle cx="217.369" cy="177.189" r="6.58696" fill="#43615F"/>
<circle cx="243.718" cy="177.189" r="6.58696" fill="#43615F"/>
<circle cx="270.065" cy="177.189" r="6.58696" fill="#43615F"/>
<circle cx="296.413" cy="177.189" r="6.58696" fill="#43615F"/>
<circle cx="6.58696" cy="152.817" r="6.58696" fill="#43615F"/>
<circle cx="32.9346" cy="152.817" r="6.58696" fill="#43615F"/>
<circle cx="59.2823" cy="152.817" r="6.58696" fill="#43615F"/>
<circle cx="85.6309" cy="152.817" r="6.58696" fill="#43615F"/>
<circle cx="111.979" cy="152.817" r="6.58696" fill="#43615F"/>
<circle cx="138.326" cy="152.817" r="6.58696" fill="#43615F"/>
<circle cx="164.674" cy="152.817" r="6.58696" fill="#43615F"/>
<circle cx="191.022" cy="152.817" r="6.58696" fill="#43615F"/>
<circle cx="217.369" cy="152.817" r="6.58696" fill="#43615F"/>
<circle cx="243.718" cy="152.817" r="6.58696" fill="#43615F"/>
<circle cx="270.065" cy="152.817" r="6.58696" fill="#43615F"/>
<circle cx="296.413" cy="152.817" r="6.58696" fill="#43615F"/>
<circle cx="6.58696" cy="128.446" r="6.58696" fill="#43615F"/>
<circle cx="32.9346" cy="128.446" r="6.58696" fill="#43615F"/>
<circle cx="59.2823" cy="128.446" r="6.58696" fill="#43615F"/>
<circle cx="85.6309" cy="128.446" r="6.58696" fill="#43615F"/>
<circle cx="111.979" cy="128.446" r="6.58696" fill="#43615F"/>
<circle cx="138.326" cy="128.446" r="6.58696" fill="#43615F"/>
<circle cx="164.674" cy="128.446" r="6.58696" fill="#43615F"/>
<circle cx="191.022" cy="128.446" r="6.58696" fill="#43615F"/>
<circle cx="217.369" cy="128.446" r="6.58696" fill="#43615F"/>
<circle cx="243.718" cy="128.446" r="6.58696" fill="#43615F"/>
<circle cx="270.065" cy="128.446" r="6.58696" fill="#43615F"/>
<circle cx="296.413" cy="128.446" r="6.58696" fill="#43615F"/>
<circle cx="6.58696" cy="104.074" r="6.58696" fill="#43615F"/>
<circle cx="32.9346" cy="104.074" r="6.58696" fill="#43615F"/>
<circle cx="59.2823" cy="104.074" r="6.58696" fill="#43615F"/>
<circle cx="85.6309" cy="104.074" r="6.58696" fill="#43615F"/>
<circle cx="111.979" cy="104.074" r="6.58696" fill="#43615F"/>
<circle cx="138.326" cy="104.074" r="6.58696" fill="#43615F"/>
<circle cx="164.674" cy="104.074" r="6.58696" fill="#43615F"/>
<circle cx="191.022" cy="104.074" r="6.58696" fill="#43615F"/>
<circle cx="217.369" cy="104.074" r="6.58696" fill="#43615F"/>
<circle cx="243.718" cy="104.074" r="6.58696" fill="#43615F"/>
<circle cx="270.065" cy="104.074" r="6.58696" fill="#43615F"/>
<circle cx="296.413" cy="104.074" r="6.58696" fill="#43615F"/>
<circle cx="6.58696" cy="79.7022" r="6.58696" fill="#43615F"/>
<circle cx="32.9346" cy="79.7022" r="6.58696" fill="#43615F"/>
<circle cx="59.2823" cy="79.7022" r="6.58696" fill="#43615F"/>
<circle cx="85.6309" cy="79.7022" r="6.58696" fill="#43615F"/>
<circle cx="111.979" cy="79.7022" r="6.58696" fill="#43615F"/>
<circle cx="138.326" cy="79.7022" r="6.58696" fill="#43615F"/>
<circle cx="164.674" cy="79.7022" r="6.58696" fill="#43615F"/>
<circle cx="191.022" cy="79.7022" r="6.58696" fill="#43615F"/>
<circle cx="217.369" cy="79.7022" r="6.58696" fill="#43615F"/>
<circle cx="243.718" cy="79.7022" r="6.58696" fill="#43615F"/>
<circle cx="270.065" cy="79.7022" r="6.58696" fill="#43615F"/>
<circle cx="296.413" cy="79.7022" r="6.58696" fill="#43615F"/>
<circle cx="6.58696" cy="55.3304" r="6.58696" fill="#43615F"/>
<circle cx="32.9346" cy="55.3304" r="6.58696" fill="#43615F"/>
<circle cx="59.2823" cy="55.3304" r="6.58696" fill="#43615F"/>
<circle cx="85.6309" cy="55.3304" r="6.58696" fill="#43615F"/>
<circle cx="111.979" cy="55.3304" r="6.58696" fill="#43615F"/>
<circle cx="138.326" cy="55.3304" r="6.58696" fill="#43615F"/>
<circle cx="164.674" cy="55.3304" r="6.58696" fill="#43615F"/>
<circle cx="191.022" cy="55.3304" r="6.58696" fill="#43615F"/>
<circle cx="217.369" cy="55.3304" r="6.58696" fill="#43615F"/>
<circle cx="243.718" cy="55.3304" r="6.58696" fill="#43615F"/>
<circle cx="270.065" cy="55.3304" r="6.58696" fill="#43615F"/>
<circle cx="296.413" cy="55.3304" r="6.58696" fill="#43615F"/>
<circle cx="6.58696" cy="30.9588" r="6.58696" fill="#43615F"/>
<circle cx="32.9346" cy="30.9588" r="6.58696" fill="#43615F"/>
<circle cx="59.2823" cy="30.9588" r="6.58696" fill="#43615F"/>
<circle cx="85.6309" cy="30.9588" r="6.58696" fill="#43615F"/>
<circle cx="111.979" cy="30.9588" r="6.58696" fill="#43615F"/>
<circle cx="138.326" cy="30.9588" r="6.58696" fill="#43615F"/>
<circle cx="164.674" cy="30.9588" r="6.58696" fill="#43615F"/>
<circle cx="191.022" cy="30.9588" r="6.58696" fill="#43615F"/>
<circle cx="217.369" cy="30.9588" r="6.58696" fill="#43615F"/>
<circle cx="243.718" cy="30.9588" r="6.58696" fill="#43615F"/>
<circle cx="270.065" cy="30.9588" r="6.58696" fill="#43615F"/>
<circle cx="296.413" cy="30.9588" r="6.58696" fill="#43615F"/>
<circle cx="6.58696" cy="6.58696" r="6.58696" fill="#43615F"/>
<circle cx="32.9346" cy="6.58696" r="6.58696" fill="#43615F"/>
<circle cx="59.2823" cy="6.58696" r="6.58696" fill="#43615F"/>
<circle cx="85.6309" cy="6.58696" r="6.58696" fill="#43615F"/>
<circle cx="111.979" cy="6.58696" r="6.58696" fill="#43615F"/>
<circle cx="138.326" cy="6.58696" r="6.58696" fill="#43615F"/>
<circle cx="164.674" cy="6.58696" r="6.58696" fill="#43615F"/>
<circle cx="191.022" cy="6.58696" r="6.58696" fill="#43615F"/>
<circle cx="217.369" cy="6.58696" r="6.58696" fill="#43615F"/>
<circle cx="243.718" cy="6.58696" r="6.58696" fill="#43615F"/>
<circle cx="270.065" cy="6.58696" r="6.58696" fill="#43615F"/>
<circle cx="296.413" cy="6.58696" r="6.58696" fill="#43615F"/>
</svg>
