<svg width="25" height="25" viewBox="0 0 25 25" fill="none" xmlns="http://www.w3.org/2000/svg">
<g clip-path="url(#clip0_57_18)">
<path d="M12.5 0.309387C5.59375 0.309387 0 5.90626 0 12.8094C0 18.3333 3.58125 23.0177 8.54688 24.6688C9.17188 24.7865 9.40104 24.4 9.40104 24.0677C9.40104 23.7708 9.39062 22.9844 9.38542 21.9427C5.90833 22.6969 5.175 20.2656 5.175 20.2656C4.60625 18.8229 3.78437 18.4375 3.78437 18.4375C2.65208 17.6625 3.87187 17.6781 3.87187 17.6781C5.12708 17.7656 5.78646 18.9656 5.78646 18.9656C6.90104 20.8771 8.7125 20.325 9.42708 20.0052C9.53958 19.1969 9.86146 18.6458 10.2188 18.3333C7.44271 18.0208 4.525 16.9458 4.525 12.1563C4.525 10.7917 5.00937 9.6771 5.81146 8.8021C5.67083 8.48647 5.24896 7.21564 5.92083 5.49376C5.92083 5.49376 6.96771 5.15835 9.35833 6.77501C10.3583 6.49689 11.4208 6.35939 12.4833 6.35314C13.5458 6.35939 14.6083 6.49689 15.6083 6.77501C17.9833 5.15835 19.0302 5.49376 19.0302 5.49376C19.7021 7.21564 19.2802 8.48647 19.1552 8.8021C19.9521 9.6771 20.4365 10.7917 20.4365 12.1563C20.4365 16.9583 17.5146 18.0156 14.7333 18.3229C15.1708 18.6979 15.5771 19.4646 15.5771 20.6354C15.5771 22.3083 15.5615 23.6521 15.5615 24.0583C15.5615 24.3865 15.7802 24.7771 16.4208 24.6521C21.4219 23.0125 25 18.325 25 12.8094C25 5.90626 19.4031 0.309387 12.5 0.309387Z" fill="#FFF5F5"/>
</g>
<defs>
<clipPath id="clip0_57_18">
<rect width="25" height="25" fill="white"/>
</clipPath>
</defs>
</svg>
