<svg width="50" height="50" viewBox="0 0 50 50" fill="none" xmlns="http://www.w3.org/2000/svg">
<path d="M39.5826 13.7051L37.009 42.0535L25.4408 45.207L13.9043 42.0579L11.3335 13.7051H39.5826Z" fill="#E44D26"/>
<path d="M25.458 42.7966L34.8057 40.2484L37.005 16.0234H25.458V42.7966Z" fill="#F16529"/>
<path d="M20.4553 22.9782H25.4582V19.5008H16.5903L16.675 20.4337L17.5442 30.0164H25.4582V26.5391H20.7785L20.4553 22.9782Z" fill="#EBEBEB"/>
<path d="M21.2522 31.7551H17.7021L18.1976 37.2151L25.4418 39.1925L25.4581 39.1881V35.5702L25.4426 35.5742L21.504 34.5285L21.2522 31.7551Z" fill="#EBEBEB"/>
<path d="M13.9619 6H15.7591V7.74594H17.4031V6H19.2004V11.2871H17.4032V9.51669H15.7592V11.2871H13.962L13.9619 6Z" fill="#DADADA"/>
<path d="M21.5636 7.75329H19.9814V6H24.9438V7.75329H23.361V11.2871H21.5637L21.5636 7.75329Z" fill="#DADADA"/>
<path d="M25.7314 6H27.6054L28.7582 7.85774L29.9098 6H31.7845V11.2871H29.9947V8.66654L28.7582 10.5464H28.7273L27.4899 8.66654V11.2871H25.7314V6Z" fill="#DADADA"/>
<path d="M32.6787 6H34.4765V9.53951H37.0038V11.2871H32.6787V6Z" fill="#DADADA"/>
<path d="M25.4458 30.0164H29.8006L29.3901 34.5263L25.4458 35.5731V39.1908L32.6958 37.2151L32.749 36.6276L33.58 27.4728L33.6663 26.5391H25.4458V30.0164Z" fill="white"/>
<path d="M25.4458 22.9697V22.9782H33.9881L34.0591 22.1966L34.2202 20.4337L34.3048 19.5008H25.4458V22.9697Z" fill="white"/>
</svg>
