<svg width="36" height="36" viewBox="0 0 36 36" fill="none" xmlns="http://www.w3.org/2000/svg">
<g clip-path="url(#clip0_99_45)">
<path d="M0 2C0 0.895431 0.895431 0 2 0H34C35.1046 0 36 0.895431 36 2V34C36 35.1046 35.1046 36 34 36H2C0.895431 36 0 35.1046 0 34V2Z" fill="#F7DF1E"/>
<path d="M9.46588 30.0842L10.4565 29.4847C11.422 28.9004 12.5218 29.4644 13.532 29.9676C13.7739 30.0881 14.0557 30.1566 14.3955 30.1566C15.5072 30.1566 16.208 29.7218 16.208 28.0303V18.219C16.208 17.2848 16.9654 16.5275 17.8996 16.5275C18.8338 16.5275 19.5911 17.2848 19.5911 18.219V28.0782C19.5911 31.5822 17.5372 33.1771 14.5406 33.1771C11.8342 33.1771 10.2632 31.7754 9.46582 30.0839" fill="black"/>
<path d="M22.3034 31.0158C21.722 30.3567 22.0235 29.3774 22.7842 28.937C23.5624 28.4864 24.5191 28.7891 25.2033 29.3727C25.7893 29.8724 26.5252 30.181 27.5183 30.181C28.92 30.181 29.8139 29.4801 29.8139 28.5135C29.8139 27.3535 28.8957 26.9427 27.3491 26.2663L26.5035 25.9035C24.0627 24.8646 22.4435 23.5597 22.4435 20.8048C22.4435 18.2674 24.3767 16.3341 27.3975 16.3341C29.0399 16.3341 30.33 16.771 31.3431 17.8493C31.9093 18.4519 31.6615 19.3906 30.9657 19.8374C30.2104 20.3224 29.2647 19.947 28.4731 19.524C28.1612 19.3573 27.8102 19.2824 27.3976 19.2824C26.4068 19.2824 25.7784 19.9107 25.7784 20.7322C25.7784 21.7472 26.4068 22.1581 27.8565 22.7864L28.7023 23.1489C31.578 24.3814 33.1971 25.6379 33.1971 28.4651C33.1971 31.5102 30.8048 33.1774 27.5908 33.1774C25.1898 33.1774 23.4381 32.3023 22.3034 31.0158Z" fill="black"/>
</g>
<defs>
<clipPath id="clip0_99_45">
<rect width="36" height="36" fill="white"/>
</clipPath>
</defs>
</svg>
