<svg width="50" height="50" viewBox="0 0 50 50" fill="none" xmlns="http://www.w3.org/2000/svg">
<path d="M25.4137 39.3128C25.2623 39.3128 25.121 39.2724 24.9898 39.2019L23.6477 38.4054C23.4459 38.2945 23.5468 38.2541 23.6073 38.234C23.8798 38.1432 23.9302 38.1231 24.2128 37.9617C24.2431 37.9416 24.2834 37.9517 24.3137 37.9718L25.343 38.5868C25.3834 38.607 25.4339 38.607 25.4641 38.5868L29.4906 36.2578C29.531 36.2377 29.5511 36.1974 29.5511 36.1469V31.499C29.5511 31.4486 29.531 31.4083 29.4906 31.3881L25.4641 29.0692C25.4238 29.0491 25.3733 29.0491 25.343 29.0692L21.3166 31.3881C21.2762 31.4083 21.256 31.4587 21.256 31.499V36.1469C21.256 36.1873 21.2762 36.2377 21.3166 36.2578L22.4165 36.893C23.0119 37.1955 23.3853 36.8426 23.3853 36.4897V31.9023C23.3853 31.8418 23.4358 31.7813 23.5064 31.7813H24.0211C24.0816 31.7813 24.1422 31.8317 24.1422 31.9023V36.4897C24.1422 37.2862 23.7082 37.75 22.9514 37.75C22.7193 37.75 22.5376 37.75 22.023 37.498L20.9634 36.893C20.701 36.7418 20.5396 36.4595 20.5396 36.157V31.5091C20.5396 31.2066 20.701 30.9243 20.9634 30.7731L24.9898 28.4441C25.2421 28.303 25.5852 28.303 25.8375 28.4441L29.864 30.7731C30.1263 30.9243 30.2878 31.2066 30.2878 31.5091V36.157C30.2878 36.4595 30.1263 36.7418 29.864 36.893L25.8375 39.222C25.7063 39.2825 25.555 39.3128 25.4137 39.3128ZM26.6549 36.1167C24.8889 36.1167 24.5256 35.3101 24.5256 34.6245C24.5256 34.564 24.5761 34.5035 24.6467 34.5035H25.1715C25.232 34.5035 25.2825 34.5439 25.2825 34.6044C25.3632 35.1387 25.5953 35.4009 26.665 35.4009C27.5127 35.4009 27.876 35.2093 27.876 34.7556C27.876 34.4935 27.7751 34.3019 26.4531 34.1708C25.3531 34.0599 24.6669 33.8179 24.6669 32.9408C24.6669 32.1241 25.3531 31.6402 26.5035 31.6402C27.7952 31.6402 28.431 32.0838 28.5117 33.0517C28.5117 33.0819 28.5016 33.1122 28.4815 33.1424C28.4613 33.1626 28.431 33.1828 28.4007 33.1828H27.876C27.8255 33.1828 27.7751 33.1424 27.765 33.092C27.6439 32.5375 27.331 32.356 26.5035 32.356C25.5751 32.356 25.4641 32.6787 25.4641 32.9206C25.4641 33.213 25.5953 33.3038 26.8467 33.4651C28.0879 33.6264 28.6732 33.8583 28.6732 34.7253C28.6631 35.6126 27.9365 36.1167 26.6549 36.1167Z" fill="#539E43"/>
<path d="M12.9203 21.1345C12.9203 20.9531 12.8194 20.7817 12.6579 20.6909L8.37918 18.2309C8.30854 18.1905 8.22781 18.1704 8.14708 18.1603H8.10671C8.02598 18.1603 7.94525 18.1905 7.87461 18.2309L3.59587 20.6909C3.43441 20.7817 3.3335 20.9531 3.3335 21.1345L3.34359 27.7485C3.34359 27.8392 3.39404 27.93 3.47478 27.9703C3.55551 28.0207 3.65642 28.0207 3.72706 27.9703L6.27008 26.5184C6.43154 26.4277 6.53246 26.2563 6.53246 26.0748V22.9796C6.53246 22.7981 6.63337 22.6267 6.79483 22.536L7.87461 21.9109C7.95534 21.8605 8.04616 21.8403 8.13698 21.8403C8.22781 21.8403 8.31863 21.8605 8.38927 21.9109L9.46905 22.536C9.63051 22.6267 9.73142 22.7981 9.73142 22.9796V26.0748C9.73142 26.2563 9.83233 26.4277 9.9938 26.5184L12.5368 27.9703C12.6175 28.0207 12.7185 28.0207 12.7992 27.9703C12.8799 27.93 12.9304 27.8392 12.9304 27.7485L12.9203 21.1345Z" fill="#DADADA"/>
<path d="M33.4865 12.0302C33.4057 11.9899 33.3048 11.9899 33.2342 12.0302C33.1535 12.0807 33.103 12.1613 33.103 12.2521V18.8055C33.103 18.866 33.0727 18.9265 33.0122 18.9668C32.9516 18.9971 32.8911 18.9971 32.8305 18.9668L31.7608 18.3518C31.5994 18.2611 31.4077 18.2611 31.2462 18.3518L26.9675 20.8219C26.806 20.9127 26.7051 21.0841 26.7051 21.2656V26.1958C26.7051 26.3772 26.806 26.5486 26.9675 26.6394L31.2462 29.1095C31.4077 29.2003 31.5994 29.2003 31.7608 29.1095L36.0396 26.6394C36.201 26.5486 36.302 26.3772 36.302 26.1958V13.9055C36.302 13.714 36.201 13.5426 36.0396 13.4518L33.4865 12.0302ZM33.0929 24.5725C33.0929 24.6229 33.0727 24.6633 33.0324 24.6834L31.5691 25.5303C31.5287 25.5505 31.4783 25.5505 31.4379 25.5303L29.9747 24.6834C29.9343 24.6633 29.9141 24.6129 29.9141 24.5725V22.8787C29.9141 22.8283 29.9343 22.788 29.9747 22.7678L31.4379 21.9209C31.4783 21.9007 31.5287 21.9007 31.5691 21.9209L33.0324 22.7678C33.0727 22.788 33.0929 22.8384 33.0929 22.8787V24.5725Z" fill="#DADADA"/>
<path d="M47.7251 22.8384C47.8866 22.7477 47.9774 22.5763 47.9774 22.3948V21.195C47.9774 21.0135 47.8765 20.8421 47.7251 20.7514L43.4767 18.2913C43.3152 18.2006 43.1235 18.2006 42.962 18.2913L38.6833 20.7615C38.5218 20.8522 38.4209 21.0236 38.4209 21.2051V26.1353C38.4209 26.3168 38.5218 26.4882 38.6833 26.5789L42.9317 28.9986C43.0932 29.0894 43.2849 29.0894 43.4363 28.9986L46.0096 27.567C46.0903 27.5266 46.1408 27.4359 46.1408 27.3452C46.1408 27.2544 46.0903 27.1637 46.0096 27.1233L41.7107 24.6532C41.63 24.6028 41.5795 24.5221 41.5795 24.4314V22.8888C41.5795 22.7981 41.63 22.7073 41.7107 22.667L43.0528 21.9008C43.1336 21.8503 43.2345 21.8503 43.3152 21.9008L44.6574 22.667C44.7381 22.7174 44.7885 22.7981 44.7885 22.8888V24.0987C44.7885 24.1894 44.839 24.2802 44.9197 24.3205C45.0005 24.3709 45.1014 24.3709 45.1821 24.3205L47.7251 22.8384Z" fill="#DADADA"/>
<path d="M43.154 22.6066C43.1843 22.5864 43.2246 22.5864 43.2549 22.6066L44.0723 23.0804C44.1026 23.1006 44.1228 23.1308 44.1228 23.1712V24.1189C44.1228 24.1592 44.1026 24.1895 44.0723 24.2096L43.2549 24.6835C43.2246 24.7037 43.1843 24.7037 43.154 24.6835L42.3366 24.2096C42.3063 24.1895 42.2861 24.1592 42.2861 24.1189V23.1712C42.2861 23.1308 42.3063 23.1006 42.3366 23.0804L43.154 22.6066Z" fill="#539E43"/>
<path d="M20.0755 18.3115C19.914 18.2207 19.7223 18.2207 19.5608 18.3115L15.3123 20.7614C15.1509 20.8522 15.0601 21.0236 15.0601 21.2051V26.1151C15.0601 26.2966 15.161 26.468 15.3123 26.5587L19.5608 29.0087C19.7223 29.0994 19.914 29.0994 20.0755 29.0087L24.3239 26.5587C24.4854 26.468 24.5762 26.2966 24.5762 26.1151V21.2051C24.5762 21.0236 24.4753 20.8522 24.3239 20.7614L20.0755 18.3115Z" fill="url(#paint0_linear_99_5)"/>
<defs>
<linearGradient id="paint0_linear_99_5" x1="663.952" y1="207.684" x2="198.862" y2="939.11" gradientUnits="userSpaceOnUse">
<stop stop-color="#41873F"/>
<stop offset="0.3288" stop-color="#418B3D"/>
<stop offset="0.6352" stop-color="#419637"/>
<stop offset="0.9319" stop-color="#3FA92D"/>
<stop offset="1" stop-color="#3FAE2A"/>
</linearGradient>
</defs>
</svg>
