<svg width="76" height="30" viewBox="0 0 76 30" fill="none" xmlns="http://www.w3.org/2000/svg">
<g clip-path="url(#clip0_105_2)">
<path d="M46.3257 20.0685H48.3374V12.6585H46.3257V20.0685ZM46.2402 10.7429C46.2402 10.0845 46.6052 9.75549 47.335 9.75549C48.0647 9.75549 48.4298 10.0845 48.4298 10.7429C48.4298 11.0567 48.3385 11.3008 48.1562 11.4754C47.9736 11.65 47.7 11.7371 47.335 11.7371C46.6052 11.7371 46.2402 11.4057 46.2402 10.7429Z" fill="#F3F3F3"/>
<path fill-rule="evenodd" clip-rule="evenodd" d="M38.1863 15.7934C38.8352 15.2411 39.1593 14.4437 39.1593 13.4009C39.1593 12.3978 38.8549 11.6433 38.2459 11.1373C37.6369 10.6318 36.7478 10.3785 35.578 10.3785H32.498V20.0686H34.5426V16.6219H35.4199C36.6157 16.6219 37.538 16.346 38.1863 15.7934ZM35.2154 14.9385H34.5426V12.0622H35.4725C36.031 12.0622 36.4408 12.1769 36.7026 12.4067C36.9641 12.6365 37.095 12.9923 37.095 13.4739C37.095 13.9509 36.939 14.3143 36.6267 14.564C36.3144 14.8138 35.8442 14.9385 35.2154 14.9385Z" fill="#F3F3F3"/>
<path d="M45.2583 12.5788C45.078 12.5391 44.8517 12.5192 44.579 12.5192C44.1216 12.5192 43.6984 12.6462 43.3095 12.9002C42.9222 13.1522 42.6036 13.4974 42.3826 13.9044H42.2839L41.9869 12.6584H40.4634V20.0685H42.4751V16.2972C42.4751 15.7007 42.6542 15.2366 43.0123 14.9052C43.371 14.5738 43.871 14.4081 44.5131 14.4081C44.7462 14.4081 44.9439 14.4303 45.1067 14.4743L45.2583 12.5788ZM54.6309 19.6046C55.1565 19.2067 55.4192 18.6282 55.4192 17.8681C55.4192 17.5013 55.3556 17.1854 55.228 16.9202C55.1006 16.655 54.9024 16.421 54.6344 16.2176C54.3663 16.0145 53.9441 15.7959 53.3679 15.5616C52.7217 15.3009 52.3029 15.1041 52.1117 14.9716C51.9205 14.8392 51.8246 14.6824 51.8246 14.501C51.8246 14.1785 52.1215 14.0172 52.7151 14.0172C53.0491 14.0172 53.3768 14.068 53.6977 14.1694C54.0186 14.2714 54.364 14.4015 54.7333 14.5607L55.34 13.1026C54.5002 12.7139 53.6362 12.5194 52.748 12.5194C51.8157 12.5194 51.0961 12.6994 50.5884 13.0596C50.08 13.4197 49.8262 13.9288 49.8262 14.5871C49.8262 14.9716 49.8867 15.2953 50.0078 15.5581C50.1284 15.8212 50.322 16.0543 50.5884 16.2574C50.8539 16.4608 51.271 16.6817 51.8378 16.9202C52.2335 17.0882 52.5502 17.235 52.7878 17.3609C53.0251 17.487 53.1923 17.5996 53.2892 17.6991C53.3858 17.7985 53.4341 17.9277 53.4341 18.0869C53.4341 18.511 53.0691 18.723 52.339 18.723C51.9829 18.723 51.5707 18.6633 51.1026 18.5442C50.634 18.4248 50.2132 18.2769 49.8394 18.1V19.7703C50.181 19.9152 50.537 20.023 50.9014 20.0916C51.2796 20.1647 51.7368 20.2012 52.2733 20.2012C53.3195 20.2012 54.1055 20.0025 54.6309 19.6046ZM63.3884 20.0685H61.3767V15.7404C61.3767 15.2059 61.2875 14.8048 61.1098 14.5375C60.9314 14.2702 60.6512 14.1364 60.2686 14.1364C59.7544 14.1364 59.3806 14.3264 59.1475 14.7065C58.9144 15.0865 58.7979 15.7116 58.7979 16.5823V20.0685H56.7862V12.6584H58.3231L58.5934 13.6063H58.7057C58.9034 13.266 59.1894 12.9996 59.563 12.8075C59.9367 12.6154 60.3655 12.5192 60.8492 12.5192C61.9529 12.5192 62.7002 12.8817 63.0917 13.6063H63.2696C63.4676 13.2615 63.7589 12.9943 64.1436 12.8042C64.5284 12.6142 64.9625 12.5192 65.4462 12.5192C66.2815 12.5192 66.9138 12.7347 67.3423 13.1653C67.7711 13.5962 67.9853 14.2866 67.9853 15.2366V20.0685H65.9671V15.7404C65.9671 15.2059 65.8779 14.8048 65.7002 14.5375C65.5219 14.2702 65.2417 14.1364 64.8591 14.1364C64.3667 14.1364 63.9985 14.3133 63.7542 14.6667C63.5104 15.0203 63.3884 15.5813 63.3884 16.3501V20.0685Z" fill="#F3F3F3"/>
<path fill-rule="evenodd" clip-rule="evenodd" d="M74.0439 19.061L74.433 20.0685H75.8378V15.1306C75.8378 14.2469 75.5739 13.5885 75.0464 13.1556C74.5187 12.7226 73.7602 12.5059 72.7709 12.5059C71.7378 12.5059 70.7967 12.7291 69.9481 13.1755L70.6141 14.5408C71.4099 14.1827 72.1025 14.0039 72.6917 14.0039C73.4568 14.0039 73.8394 14.3796 73.8394 15.1306V15.4554L72.5599 15.4952C71.4563 15.535 70.6309 15.7417 70.0831 16.1149C69.5359 16.4885 69.2622 17.0684 69.2622 17.8548C69.2622 18.606 69.4655 19.1848 69.8721 19.5913C70.279 19.9978 70.8361 20.201 71.5443 20.201C72.1202 20.201 72.5874 20.1181 72.9456 19.9524C73.304 19.7867 73.6524 19.4897 73.991 19.061H74.0439ZM73.0611 16.6616L73.8394 16.6352V17.2449C73.8394 17.6914 73.6997 18.0492 73.4204 18.3186C73.1414 18.5882 72.7686 18.723 72.3026 18.723C71.6519 18.723 71.3265 18.438 71.3265 17.8681C71.3265 17.4702 71.4693 17.1744 71.7553 16.9799C72.041 16.7857 72.4763 16.6794 73.0611 16.6616ZM22.2289 23.7614L8.84279 27.74C8.43384 27.8617 8.04189 27.5062 8.12782 27.0917L12.9099 4.0766C12.9994 3.64644 13.5914 3.5781 13.7781 3.97667L22.6325 22.8718C22.7995 23.2282 22.609 23.6486 22.2289 23.7614ZM24.5245 22.8229L14.2723 0.944731V0.944263C14.1449 0.674855 13.9474 0.445111 13.7006 0.279392C13.4538 0.113673 13.167 0.0181561 12.8706 0.00297011C12.2467 -0.0335395 11.6877 0.268835 11.3724 0.78348L0.253429 18.8815C0.0845105 19.1549 -0.00336612 19.471 9.86393e-05 19.7928C0.0035634 20.1145 0.098226 20.4287 0.272992 20.6983L5.70812 29.1592C6.03207 29.6642 6.59333 29.9565 7.17671 29.9565C7.34206 29.9565 7.50834 29.9331 7.67183 29.8844L23.4486 25.1953C23.6861 25.1254 23.9058 25.005 24.0931 24.8424C24.2803 24.6798 24.4306 24.4786 24.5338 24.2526C24.6357 24.0279 24.6877 23.7835 24.6861 23.5366C24.6844 23.2896 24.6293 23.0462 24.5245 22.8229Z" fill="#F3F3F3"/>
</g>
<defs>
<clipPath id="clip0_105_2">
<rect width="76" height="30" fill="white"/>
</clipPath>
</defs>
</svg>
